<svg width="1566" height="845" viewBox="0 0 1566 845" fill="none" xmlns="http://www.w3.org/2000/svg">
<path d="M417.024 471.15L441.443 158.747L577.205 169.944L552.786 482.348L417.024 471.15ZM401.561 668.981L411.796 538.042L547.557 549.24L537.322 680.179L401.561 668.981Z" fill="#003087" fill-opacity="0.06"/>
<path d="M362.079 435.107L201.231 377.854L134.728 564.691L2.94077 517.783L172.787 40.6084L304.574 87.517L241.899 263.601L402.747 320.854L362.079 435.107Z" fill="#4FCD32" fill-opacity="0.06"/>
<path d="M1100.02 307.75L995.58 603.188L867.343 557.235L971.786 261.796L1100.02 307.75ZM1166.16 120.662L1122.39 244.49L994.149 198.536L1037.92 74.7082L1166.16 120.662Z" fill="#003087" fill-opacity="0.06"/>
<path d="M1143.77 356.786L1284.32 453.718L1396.91 290.46L1512.07 369.879L1224.51 786.834L1109.35 707.415L1215.46 553.553L1074.91 456.62L1143.77 356.786Z" fill="#4FCD32" fill-opacity="0.06"/>
</svg>
