<svg width="881" height="76" viewBox="0 0 881 76" fill="none" xmlns="http://www.w3.org/2000/svg">
<path d="M42.7675 75.96C28.3035 75.96 17.6475 72.888 10.7995 66.744C3.9515 60.6 0.5275 51.832 0.5275 40.44C0.5275 28.984 3.9515 19.928 10.7995 13.272C17.6475 6.616 28.3035 3.288 42.7675 3.288C62.9915 3.288 76.5275 10.232 83.3755 24.12C77.6155 26.104 70.8635 29.08 63.1195 33.048C61.2635 29.464 58.3195 26.808 54.2875 25.08C50.3195 23.352 46.2555 22.488 42.0955 22.488C35.9515 22.488 31.3755 24.12 28.3675 27.384C25.3595 30.584 23.8555 34.552 23.8555 39.288C23.8555 44.408 25.4555 48.6 28.6555 51.864C31.9195 55.064 36.8795 56.664 43.5355 56.664C48.8475 56.664 53.0715 55.8 56.2075 54.072C59.3435 52.28 61.6475 49.464 63.1195 45.624C68.3675 48.44 75.0875 51.608 83.2795 55.128C80.0795 62.872 74.7355 68.28 67.2475 71.352C59.7595 74.424 51.5995 75.96 42.7675 75.96ZM113.746 57.432C138.066 57.304 155.698 56.952 166.642 56.376C166.194 59 165.906 61.72 165.778 64.536C165.714 67.288 165.682 70.776 165.682 75H91.09C91.602 62.584 91.858 50.968 91.858 40.152C91.858 29.336 91.602 17.72 91.09 5.304H165.682V22.68H113.746V31.896C116.818 31.96 121.362 31.992 127.378 31.992C137.554 31.992 148.082 31.8 158.962 31.416V47.928C148.082 47.544 137.554 47.352 127.378 47.352C121.362 47.352 116.818 47.384 113.746 47.448V57.432ZM217.924 5.4C230.66 5.4 239.524 7.672 244.516 12.216C249.508 16.696 252.004 23.032 252.004 31.224C252.004 36.856 251.012 41.656 249.028 45.624C247.044 49.528 243.556 52.6 238.564 54.84C233.572 57.016 226.692 58.104 217.924 58.104H197.956V75H174.34C174.852 62.584 175.108 50.968 175.108 40.152C175.108 29.336 174.852 17.72 174.34 5.304H197.956V5.4H217.924ZM211.204 39.576C216.516 39.576 220.484 39.384 223.108 39C225.796 38.552 227.652 37.784 228.676 36.696C229.764 35.608 230.308 34.008 230.308 31.896C230.308 29.784 229.796 28.216 228.772 27.192C227.812 26.104 225.988 25.368 223.3 24.984C220.676 24.6 216.644 24.408 211.204 24.408H197.956V39.576H211.204ZM342.117 25.464C332.069 25.144 322.309 24.952 312.837 24.888V75H288.837V24.888C279.301 24.952 269.573 25.144 259.653 25.464V5.304H342.117V25.464ZM373.36 5.4L371.728 59.256L395.056 5.4H430.384C429.936 16.216 429.712 27.8 429.712 40.152C429.712 52.568 429.936 64.184 430.384 75H405.712L407.44 22.584L384.208 75H349.84C350.352 62.584 350.608 50.968 350.608 40.152C350.608 29.4 350.352 17.816 349.84 5.4H373.36ZM523.595 37.656C523.595 54.424 513.003 64.024 491.819 66.456L492.011 75H469.355L469.451 66.36C458.699 65.08 450.763 61.976 445.643 57.048C440.587 52.12 438.059 45.656 438.059 37.656C438.059 29.72 440.587 23.288 445.643 18.36C450.699 13.368 458.635 10.232 469.451 8.952L469.355 0.119997H492.011C491.947 1.976 491.915 4.92 491.915 8.952C502.795 10.232 510.795 13.368 515.915 18.36C521.035 23.288 523.595 29.72 523.595 37.656ZM491.819 47.352C494.955 46.584 497.227 45.4 498.635 43.8C500.107 42.2 500.843 40.152 500.843 37.656C500.843 32.792 497.899 29.624 492.011 28.152L491.915 36.6C491.851 38.968 491.819 42.552 491.819 47.352ZM460.811 37.656C460.811 40.088 461.515 42.104 462.923 43.704C464.331 45.304 466.571 46.488 469.643 47.256V36.6V28.152C463.755 29.624 460.811 32.792 460.811 37.656ZM554.766 5.4L553.134 59.256L576.462 5.4H611.79C611.342 16.216 611.118 27.8 611.118 40.152C611.118 52.568 611.342 64.184 611.79 75H587.118L588.846 22.584L565.614 75H531.246C531.758 62.584 532.014 50.968 532.014 40.152C532.014 29.4 531.758 17.816 531.246 5.4H554.766ZM681.289 41.688C685.065 44.76 687.945 48.184 689.929 51.96C691.977 55.672 693.961 60.248 695.881 65.688C697.481 70.104 698.761 73.208 699.721 75H671.497C671.113 73.912 670.601 72.024 669.961 69.336C669.321 66.392 668.617 63.928 667.849 61.944C667.145 59.96 666.121 58.232 664.777 56.76C662.601 54.456 659.881 52.984 656.617 52.344C653.417 51.64 649.001 51.288 643.369 51.288V75H619.465C619.977 62.584 620.233 50.968 620.233 40.152C620.233 29.336 619.977 17.72 619.465 5.304H643.369V30.36C644.009 30.424 644.969 30.456 646.249 30.456C656.233 20.6 663.657 12.216 668.521 5.304H699.625L669.769 35.064C673.993 36.728 677.833 38.936 681.289 41.688ZM767.979 75C766.763 71.352 765.131 66.776 763.083 61.272H732.459L727.659 75H703.562L730.443 5.304H765.771L792.843 75H767.979ZM757.611 46.296C755.179 39.576 752.683 32.856 750.123 26.136L747.819 19.896C745.579 25.72 742.283 34.52 737.931 46.296H757.611ZM880.429 25.464C870.381 25.144 860.621 24.952 851.149 24.888V75H827.149V24.888C817.613 24.952 807.885 25.144 797.965 25.464V5.304H880.429V25.464Z" fill="white"/>
</svg>
